<?xml version="1.0" encoding="UTF-8" standalone="no"?>
<!-- Created with Inkscape (http://www.inkscape.org/) -->

<svg
   xmlns:dc="http://purl.org/dc/elements/1.1/"
   xmlns:cc="http://creativecommons.org/ns#"
   xmlns:rdf="http://www.w3.org/1999/02/22-rdf-syntax-ns#"
   xmlns:svg="http://www.w3.org/2000/svg"
   xmlns="http://www.w3.org/2000/svg"
   xmlns:sodipodi="http://sodipodi.sourceforge.net/DTD/sodipodi-0.dtd"
   xmlns:inkscape="http://www.inkscape.org/namespaces/inkscape"
   width="47"
   height="47"
   viewBox="0 0 12.435416 12.435417"
   version="1.1"
   id="svg105"
   inkscape:version="0.92.5 (2060ec1f9f, 2020-04-08)"
   sodipodi:docname="debug.svg">
  <defs
     id="defs99" />
  <sodipodi:namedview
     id="base"
     pagecolor="#ffffff"
     bordercolor="#666666"
     borderopacity="1.0"
     inkscape:pageopacity="0.0"
     inkscape:pageshadow="2"
     inkscape:zoom="14.577187"
     inkscape:cx="7.925993"
     inkscape:cy="19.152684"
     inkscape:document-units="mm"
     inkscape:current-layer="g10667"
     showgrid="false"
     units="px"
     inkscape:window-width="1848"
     inkscape:window-height="1016"
     inkscape:window-x="72"
     inkscape:window-y="27"
     inkscape:window-maximized="1" />
  <metadata
     id="metadata102">
    <rdf:RDF>
      <cc:Work
         rdf:about="">
        <dc:format>image/svg+xml</dc:format>
        <dc:type
           rdf:resource="http://purl.org/dc/dcmitype/StillImage" />
        <dc:title />
      </cc:Work>
    </rdf:RDF>
  </metadata>
  <g
     inkscape:label="Calque 1"
     inkscape:groupmode="layer"
     id="layer1"
     transform="translate(0,-284.56457)">
    <g
       id="g10667"
       style="display:inline;stroke-width:0.84291703"
       transform="matrix(1.0858627,0,0,1.0858627,-21.964394,194.83856)">
      <g
         transform="matrix(0.29985078,-0.29985078,0.29985078,0.29985078,13.467063,100.77783)"
         id="use44"
         style="fill:#ffffff;fill-opacity:1">
        <path
           inkscape:connector-curvature="0"
           d="m 42.136964,2.0718231 c -2.553965,-0.00229 -3.270477,2.0473286 -5.605453,1.7481228 L 36.305,7.2095998 c 1.358329,0.243631 2.430553,1.026091 5.531505,0.465678 3.969221,-0.717329 4.806158,-1.7455896 4.853974,-3.1085159 0.04783,-1.3629264 -2.22437,-2.3718464 -4.279705,-2.4869441 -0.0934,-0.00526 -0.184998,-0.00782 -0.27381,-0.00795 z m -8.69798,1.2378104 c -1.390336,-0.00863 -2.306968,0.4949095 -2.338382,1.7827655 -0.04783,1.9601168 1.76937,2.3435808 3.94527,2.0805598 0.148267,-0.01792 0.288781,-0.02702 0.424373,-0.02997 L 35.705416,3.6414112 C 34.872169,3.4339163 34.101748,3.3137387 33.438984,3.3096416 Z"
           style="fill:#ffffff;fill-opacity:1;stroke-width:1.13639939;paint-order:markers stroke fill"
           id="path2648" />
      </g>
      <g
         transform="matrix(0.40425122,-0.40425122,-0.40425122,-0.40425122,11.263296,103.8675)"
         id="use45"
         style="fill:#ffffff;fill-opacity:1">
        <path
           inkscape:connector-curvature="0"
           d="m 42.320574,2.1255107 c -1.894387,-0.0017 -2.425855,1.518593 -4.157809,1.296659 l -0.168013,2.514254 c 1.007532,0.180712 1.802847,0.761097 4.102959,0.345414 2.944144,-0.532074 3.564937,-1.29478 3.600404,-2.305722 0.03548,-1.010942 -1.649912,-1.759302 -3.174444,-1.844675 -0.06928,-0.0039 -0.137221,-0.0058 -0.203097,-0.0059 z m -6.451671,0.918138 c -1.031273,-0.0064 -1.711179,0.367096 -1.73448,1.322355 -0.03548,1.453904 1.312419,1.738336 2.926379,1.543242 0.109976,-0.01329 0.214201,-0.02004 0.314776,-0.02223 l 0.174436,-2.597273 c -0.618055,-0.153908 -1.18951,-0.243049 -1.681111,-0.246088 z"
           style="fill:#ffffff;fill-opacity:1;paint-order:markers stroke fill"
           id="path2652" />
      </g>
      <g
         transform="matrix(0.92092675,0,0,0.92092675,12.833608,78.96297)"
         id="g2658">
        <g
           transform="matrix(0.32559677,-0.32559677,0.32559677,0.32559677,28.419087,56.915166)"
           id="use44-7"
           style="fill:#ffffff;fill-opacity:1">
          <path
             inkscape:connector-curvature="0"
             d="m 42.320574,2.1255107 c -1.894387,-0.0017 -2.425855,1.518593 -4.157809,1.296659 l -0.168013,2.514254 c 1.007532,0.180712 1.802847,0.761097 4.102959,0.345414 2.944144,-0.532074 3.564937,-1.29478 3.600404,-2.305722 0.03548,-1.010942 -1.649912,-1.759302 -3.174444,-1.844675 -0.06928,-0.0039 -0.137221,-0.0058 -0.203097,-0.0059 z m -6.451671,0.918138 c -1.031273,-0.0064 -1.711179,0.367096 -1.73448,1.322355 -0.03548,1.453904 1.312419,1.738336 2.926379,1.543242 0.109976,-0.01329 0.214201,-0.02004 0.314776,-0.02223 l 0.174436,-2.597273 c -0.618055,-0.153908 -1.18951,-0.243049 -1.681111,-0.246088 z"
             style="paint-order:markers stroke fill"
             id="path2705" />
        </g>
        <g
           transform="matrix(0.32559677,-0.32559677,-0.32559677,-0.32559677,-28.846019,-3.8549181)"
           id="use45-5"
           style="fill:#ffffff;fill-opacity:1">
          <path
             inkscape:connector-curvature="0"
             d="m 42.320574,2.1255107 c -1.894387,-0.0017 -2.425855,1.518593 -4.157809,1.296659 l -0.168013,2.514254 c 1.007532,0.180712 1.802847,0.761097 4.102959,0.345414 2.944144,-0.532074 3.564937,-1.29478 3.600404,-2.305722 0.03548,-1.010942 -1.649912,-1.759302 -3.174444,-1.844675 -0.06928,-0.0039 -0.137221,-0.0058 -0.203097,-0.0059 z m -6.451671,0.918138 c -1.031273,-0.0064 -1.711179,0.367096 -1.73448,1.322355 -0.03548,1.453904 1.312419,1.738336 2.926379,1.543242 0.109976,-0.01329 0.214201,-0.02004 0.314776,-0.02223 l 0.174436,-2.597273 c -0.618055,-0.153908 -1.18951,-0.243049 -1.681111,-0.246088 z"
             style="paint-order:markers stroke fill"
             id="path2709" />
        </g>
      </g>
    </g>
  </g>
</svg>
