<?xml version="1.0" encoding="UTF-8" standalone="no"?>
<svg
   xmlns:dc="http://purl.org/dc/elements/1.1/"
   xmlns:cc="http://creativecommons.org/ns#"
   xmlns:rdf="http://www.w3.org/1999/02/22-rdf-syntax-ns#"
   xmlns:svg="http://www.w3.org/2000/svg"
   xmlns="http://www.w3.org/2000/svg"
   xmlns:xlink="http://www.w3.org/1999/xlink"
   style="enable-background:new"
   id="svg5"
   version="1.1"
   viewBox="0 0 12.506998 12.507"
   height="47.27055"
   width="47.270542">
  <metadata
     id="metadata1060">
    <rdf:RDF>
      <cc:Work
         rdf:about="">
        <dc:format>image/svg+xml</dc:format>
        <dc:type
           rdf:resource="http://purl.org/dc/dcmitype/StillImage" />
        <dc:title></dc:title>
      </cc:Work>
    </rdf:RDF>
  </metadata>
  <defs
     id="defs2">
    <linearGradient
       gradientTransform="matrix(0.16021301,0,0,0.16073284,125.76071,208.85592)"
       id="contour_base_70">
      <stop
         id="stop41063"
         offset="0"
         style="stop-color:#4d4d4d;stop-opacity:1;" />
    </linearGradient>
    <linearGradient
       gradientUnits="userSpaceOnUse"
       y2="162.22829"
       x2="233.37071"
       y1="162.22829"
       x1="226.70409"
       gradientTransform="scale(1.0330496,0.96800769)"
       id="action_blanc">
      <stop
         id="stop34826"
         offset="0"
         style="stop-color:#ffffff;stop-opacity:1;" />
    </linearGradient>
    <linearGradient
       gradientUnits="userSpaceOnUse"
       y2="194.64974"
       x2="195.48422"
       y1="194.64974"
       x1="187.77298"
       gradientTransform="scale(1.2230837,0.81760556)"
       id="fond_base_40">
      <stop
         id="stop31971"
         offset="0"
         style="stop-color:#999999;stop-opacity:1;" />
    </linearGradient>
    <linearGradient
       gradientUnits="userSpaceOnUse"
       y2="194.64974"
       x2="195.48422"
       y1="194.64974"
       x1="187.77298"
       gradientTransform="scale(1.2230837,0.81760556)"
       id="linearGradient2917"
       xlink:href="#contour_base_70" />
    <linearGradient
       gradientUnits="userSpaceOnUse"
       y2="221.8555"
       x2="171.53636"
       y1="221.8555"
       x1="164.86283"
       gradientTransform="scale(1.3934503,0.7176431)"
       id="linearGradient2919"
       xlink:href="#contour_base_70" />
  </defs>
  <g
     transform="translate(-228.67863,-155.78234)"
     style="display:inline"
     id="layer1">
    <g
       id="use188233"
       transform="translate(157.61669,84.364092)"
       style="fill:none;stroke-width:0.26458299">
      <rect
         style="opacity:1;vector-effect:none;fill:none;fill-opacity:1;stroke:none;stroke-width:0.276272;stroke-linecap:butt;stroke-linejoin:miter;stroke-miterlimit:4;stroke-dasharray:none;stroke-dashoffset:0;stroke-opacity:1;paint-order:markers stroke fill"
         id="rect2705"
         width="12.506998"
         height="12.507"
         x="71.061935"
         y="71.418243" />
    </g>
    <g
       id="g7654">
      <path
         d="m 234.8598,164.72722 v 0"
         style="display:inline;fill:none;fill-opacity:1;stroke:#333333;stroke-width:0.39687499;stroke-linecap:square;stroke-linejoin:miter;stroke-miterlimit:4;stroke-dasharray:none;stroke-dashoffset:0;stroke-opacity:1;paint-order:fill markers stroke"
         id="path188235" />
      <path
         d="m 234.37801,159.34515 c -2.495,-1.1e-4 -4.51762,2.0258 -4.51751,4.52484 v 1.38304 h 9.03462 v -1.38304 c 1.2e-4,-2.4989 -2.02227,-4.52473 -4.51711,-4.52484 z m 0,1.38343 c 1.73213,1e-5 3.1363,1.40646 3.13631,3.14141 h -6.27301 c 1e-5,-1.7351 1.40441,-3.14161 3.1367,-3.14141 z"
         style="fill:url(#fond_base_40);fill-opacity:1;stroke:url(#linearGradient2917);stroke-width:0.39687499;stroke-linecap:square;stroke-linejoin:miter;stroke-miterlimit:4;stroke-dasharray:none;stroke-dashoffset:0;stroke-opacity:1;paint-order:fill markers stroke"
         id="path188237" />
      <path
         d="m 231.18359,160.67059 0.55719,0.55809 m 5.83125,-0.5581 -0.55717,0.5581 m 1.88025,2.64131 h -0.49364 m 0.33973,-1.17106 -0.47682,0.12797 m 0.0255,-1.21923 -0.4275,0.24722 m -1.22595,-1.90336 -0.24681,0.42821 m -0.84268,-0.88022 -0.12776,0.4776 m -2.21057,-0.4776 0.12776,0.4776 m -1.21726,-0.0256 0.24683,0.4282 m -1.90028,1.22793 0.42752,0.24723 m -0.8788,0.84404 0.47682,0.12796 m -0.63074,1.0431 h 0.49363 m -0.49363,0 h 0.78797 m 3.72938,-4.52462 v 0.78925"
         style="fill:#999999;fill-opacity:1;stroke:url(#linearGradient2919);stroke-width:0.26458299;stroke-linecap:square;stroke-linejoin:miter;stroke-miterlimit:4;stroke-dasharray:none;stroke-dashoffset:0;stroke-opacity:1;paint-order:fill markers stroke"
         id="use188265" />
      <path
         d="m 235.02627,157.03823 -0.82969,0.90476 0.90525,0.8292 0.24101,-0.26273 -0.42078,-0.38769 c 1.3358,-0.0155 2.56956,0.45979 3.48867,1.30134 0.91846,0.84092 1.49978,2.02936 1.6016,3.35928 l -0.42027,-0.38522 -0.24348,0.2657 0.90526,0.8287 0.82969,-0.90476 -0.26323,-0.24348 -0.43608,0.47856 c -0.0923,-1.45114 -0.73075,-2.74659 -1.73002,-3.66151 -0.99911,-0.9148 -2.34681,-1.43707 -3.80127,-1.40258 l 0.43608,-0.47609 z"
         style="color:#000000;fill:url(#action_blanc);stroke:none;stroke-width:0.79523402;stroke-linecap:square;paint-order:fill markers stroke"
         id="path6131" />
    </g>
  </g>
</svg>
