<?xml version="1.0" encoding="UTF-8" standalone="no"?>
<svg
   xmlns:dc="http://purl.org/dc/elements/1.1/"
   xmlns:cc="http://creativecommons.org/ns#"
   xmlns:rdf="http://www.w3.org/1999/02/22-rdf-syntax-ns#"
   xmlns:svg="http://www.w3.org/2000/svg"
   xmlns="http://www.w3.org/2000/svg"
   style="enable-background:new"
   id="svg5"
   version="1.1"
   viewBox="0 0 12.506998 12.507"
   height="47.27055"
   width="47.270542">
  <metadata
     id="metadata1060">
    <rdf:RDF>
      <cc:Work
         rdf:about="">
        <dc:format>image/svg+xml</dc:format>
        <dc:type
           rdf:resource="http://purl.org/dc/dcmitype/StillImage" />
        <dc:title></dc:title>
      </cc:Work>
    </rdf:RDF>
  </metadata>
  <defs
     id="defs2">
    <linearGradient
       gradientUnits="userSpaceOnUse"
       y2="597.97878"
       x2="257.5489"
       y1="597.97878"
       x1="254.52158"
       gradientTransform="scale(0.93307177,1.0717289)"
       id="action_blanc">
      <stop
         id="stop34826"
         offset="0"
         style="stop-color:#ffffff;stop-opacity:1;" />
    </linearGradient>
    <linearGradient
       gradientUnits="userSpaceOnUse"
       y2="611.93204"
       x2="246.39277"
       y1="611.93204"
       x1="239.18619"
       gradientTransform="scale(0.96481763,1.0364653)"
       id="contour_base">
      <stop
         id="stop31977"
         offset="0"
         style="stop-color:#333333;stop-opacity:1;" />
    </linearGradient>
    <linearGradient
       gradientUnits="userSpaceOnUse"
       y2="611.93204"
       x2="246.39277"
       y1="611.93204"
       x1="239.18619"
       gradientTransform="scale(0.96481763,1.0364653)"
       id="fond_base_40">
      <stop
         id="stop31971"
         offset="0"
         style="stop-color:#999999;stop-opacity:1;" />
    </linearGradient>
  </defs>
  <g
     transform="translate(-229.05241,-616.06123)"
     style="display:inline"
     id="layer1">
    <g
       style="display:inline"
       transform="translate(-1.1550511e-6,-16.724627)"
       id="g2471">
      <g
         id="use150776-7-1"
         transform="translate(157.99048,561.36761)"
         style="fill:none">
        <rect
           style="opacity:1;vector-effect:none;fill:none;fill-opacity:1;stroke:none;stroke-width:0.276272;stroke-linecap:butt;stroke-linejoin:miter;stroke-miterlimit:4;stroke-dasharray:none;stroke-dashoffset:0;stroke-opacity:1;paint-order:markers stroke fill"
           id="rect5302"
           width="12.506998"
           height="12.507"
           x="71.061935"
           y="71.418243" />
      </g>
      <path
         d="m 237.01792,635.79288 c -0.0733,-0.0357 -0.16246,-0.0352 -0.23869,0.009 l -0.8598,0.49675 a 2.3714399,2.3728352 30 0 0 -0.48529,-0.37238 2.3714399,2.3728352 30 0 0 -0.56522,-0.22727 l 3.8e-4,-0.9998 c 2e-5,-0.088 -0.0443,-0.16523 -0.11186,-0.21082 -0.0405,-0.0273 -0.0896,-0.0436 -0.1424,-0.0436 l -0.7331,4.2e-4 c -0.14085,10e-6 -0.25425,0.11327 -0.25429,0.25413 l -1.8e-4,1.00764 a 2.3714399,2.3728352 30 0 0 -1.04312,0.59675 l -0.86721,-0.50069 c -0.12194,-0.0704 -0.27662,-0.0286 -0.34706,0.0934 l -0.36673,0.6352 c -0.0704,0.12201 -0.0291,0.27653 0.0928,0.34693 l 0.8669,0.5005 a 2.3714399,2.3728352 30 0 0 0.005,1.20224 l -0.87236,0.50366 c -0.12197,0.0705 -0.16351,0.22563 -0.0931,0.34761 l 0.36637,0.63478 c 0.0704,0.12197 0.22532,0.16376 0.34728,0.0933 l 0.86618,-0.50036 a 2.3714399,2.3728352 30 0 0 0.47892,0.37599 2.3714399,2.3728352 30 0 0 0.56508,0.22676 l -2.4e-4,1.00031 c -4e-5,0.14086 0.11329,0.25396 0.25411,0.25392 l 0.73292,-10e-5 c 0.14085,-10e-6 0.25443,-0.1136 0.25448,-0.25445 l 5.1e-4,-1.00745 a 2.3714399,2.3728352 30 0 0 1.04311,-0.59675 l 0.86689,0.5005 c 0.12194,0.0704 0.27675,0.0291 0.34719,-0.0929 l 0.36673,-0.63519 c 0.0704,-0.12201 0.029,-0.27703 -0.093,-0.34743 l -0.86015,-0.49661 a 2.3714399,2.3728352 30 0 0 -2.8e-4,-1.21245 l 0.86101,-0.49735 c 0.12197,-0.0705 0.16332,-0.22531 0.0929,-0.34729 l -0.36618,-0.6351 c -0.0264,-0.0457 -0.0645,-0.0802 -0.10846,-0.10164 z m -2.3165,1.40233 a 0.90691136,0.90744498 30 0 1 0.33162,1.23908 0.90691136,0.90744498 30 0 1 -1.23907,0.33268 0.90691136,0.90744498 30 0 1 -0.33176,-1.23959 0.90691136,0.90744498 30 0 1 1.23921,-0.33217 z"
         style="fill:url(#fond_base_40);stroke:url(#contour_base);stroke-width:0.39687601;paint-order:fill markers stroke"
         id="path6789-9-4" />
      <path
         d="m 240.31161,642.49324 -2.8242,-1.62209 -5.1e-4,3.24447 z"
         style="opacity:1;vector-effect:none;fill:url(#action_blanc);stroke:none;stroke-width:0.49999899;paint-order:fill markers stroke"
         id="rect64942" />
    </g>
  </g>
</svg>
