<?xml version="1.0" encoding="UTF-8" standalone="no"?>
<svg
   xmlns:dc="http://purl.org/dc/elements/1.1/"
   xmlns:cc="http://creativecommons.org/ns#"
   xmlns:rdf="http://www.w3.org/1999/02/22-rdf-syntax-ns#"
   xmlns:svg="http://www.w3.org/2000/svg"
   xmlns="http://www.w3.org/2000/svg"
   xmlns:xlink="http://www.w3.org/1999/xlink"
   style="enable-background:new"
   id="svg5"
   version="1.1"
   viewBox="0 0 12.506998 12.507"
   height="47.27055"
   width="47.270542">
  <metadata
     id="metadata1060">
    <rdf:RDF>
      <cc:Work
         rdf:about="">
        <dc:format>image/svg+xml</dc:format>
        <dc:type
           rdf:resource="http://purl.org/dc/dcmitype/StillImage" />
        <dc:title></dc:title>
      </cc:Work>
    </rdf:RDF>
  </metadata>
  <defs
     id="defs2">
    <linearGradient
       gradientTransform="matrix(-0.10644594,0.11609075,0.11617526,0.10636849,1979.3499,-142.33631)"
       id="action_blanc">
      <stop
         id="stop34826"
         offset="0"
         style="stop-color:#ffffff;stop-opacity:1;" />
    </linearGradient>
    <linearGradient
       gradientUnits="userSpaceOnUse"
       y2="595.80379"
       x2="247.50641"
       y1="595.80379"
       x1="240.29983"
       gradientTransform="scale(0.96481763,1.0364653)"
       id="contour_base">
      <stop
         id="stop31977"
         offset="0"
         style="stop-color:#333333;stop-opacity:1;" />
    </linearGradient>
    <linearGradient
       gradientUnits="userSpaceOnUse"
       y2="595.80379"
       x2="247.50641"
       y1="595.80379"
       x1="240.29983"
       gradientTransform="scale(0.96481763,1.0364653)"
       id="fond_base_40">
      <stop
         id="stop31971"
         offset="0"
         style="stop-color:#999999;stop-opacity:1;" />
    </linearGradient>
    <marker
       orient="auto"
       refY="0"
       refX="0"
       id="Arrow2Send-2-9"
       style="overflow:visible">
      <path
         id="path122349-7-5"
         style="fill:context-stroke;fill-rule:evenodd;stroke:context-stroke;stroke-width:0.625;stroke-linejoin:round"
         d="M 8.7185878,4.0337352 -2.2072895,0.01601326 8.7185884,-4.0017078 c -1.7454984,2.3720609 -1.7354408,5.6174519 -6e-7,8.035443 z"
         transform="matrix(-0.3,0,0,-0.3,0.69,0)" />
    </marker>
    <linearGradient
       gradientUnits="userSpaceOnUse"
       y2="773.69733"
       x2="215.87979"
       y1="773.69733"
       x1="212.90997"
       gradientTransform="scale(1.2550392,0.79678784)"
       id="linearGradient6269"
       xlink:href="#action_blanc" />
    <linearGradient
       gradientUnits="userSpaceOnUse"
       y2="772.81548"
       x2="221.09525"
       y1="772.81548"
       x1="218.12501"
       gradientTransform="scale(1.2536088,0.79769705)"
       id="linearGradient6271"
       xlink:href="#action_blanc" />
  </defs>
  <g
     transform="translate(-229.05242,-597.65008)"
     style="display:inline"
     id="layer1">
    <g
       transform="translate(0,-16.514287)"
       style="display:inline"
       id="g2466">
      <g
         id="use63820"
         transform="translate(157.99048,542.74612)"
         style="fill:none">
        <rect
           style="opacity:1;vector-effect:none;fill:none;fill-opacity:1;stroke:none;stroke-width:0.276272;stroke-linecap:butt;stroke-linejoin:miter;stroke-miterlimit:4;stroke-dasharray:none;stroke-dashoffset:0;stroke-opacity:1;paint-order:markers stroke fill"
           id="rect5306"
           width="12.506998"
           height="12.507"
           x="71.061935"
           y="71.418243" />
      </g>
      <g
         transform="translate(-0.01426054,-0.31811182)"
         id="g63830">
        <path
           d="m 238.09238,619.07651 c -0.0733,-0.0357 -0.16246,-0.0352 -0.23869,0.009 l -0.8598,0.49675 a 2.3714399,2.3728352 30 0 0 -0.48529,-0.37238 2.3714399,2.3728352 30 0 0 -0.56522,-0.22727 l 3.8e-4,-0.9998 c 2e-5,-0.088 -0.0443,-0.16523 -0.11186,-0.21082 -0.0405,-0.0273 -0.0896,-0.0436 -0.1424,-0.0436 l -0.7331,4.2e-4 c -0.14085,1e-5 -0.25425,0.11327 -0.25429,0.25413 l -1.8e-4,1.00764 a 2.3714399,2.3728352 30 0 0 -1.04312,0.59675 l -0.86721,-0.50069 c -0.12194,-0.0704 -0.27662,-0.0286 -0.34706,0.0934 l -0.36673,0.6352 c -0.0704,0.12201 -0.0291,0.27653 0.0928,0.34693 l 0.8669,0.5005 a 2.3714399,2.3728352 30 0 0 0.005,1.20224 l -0.87236,0.50366 c -0.12197,0.0705 -0.16351,0.22563 -0.0931,0.34761 l 0.36637,0.63478 c 0.0704,0.12197 0.22532,0.16376 0.34728,0.0933 l 0.86618,-0.50036 a 2.3714399,2.3728352 30 0 0 0.47892,0.37599 2.3714399,2.3728352 30 0 0 0.56508,0.22676 l -2.4e-4,1.00031 c -4e-5,0.14086 0.11329,0.25396 0.25411,0.25392 l 0.73292,-10e-5 c 0.14085,-10e-6 0.25443,-0.1136 0.25448,-0.25445 l 5.1e-4,-1.00745 a 2.3714399,2.3728352 30 0 0 1.04311,-0.59675 l 0.86689,0.5005 c 0.12194,0.0704 0.27675,0.0291 0.34719,-0.0929 l 0.36673,-0.63519 c 0.0704,-0.12201 0.029,-0.27703 -0.093,-0.34743 l -0.86015,-0.49661 a 2.3714399,2.3728352 30 0 0 -2.8e-4,-1.21245 l 0.86101,-0.49735 c 0.12197,-0.0705 0.16332,-0.22531 0.0929,-0.34729 l -0.36618,-0.6351 c -0.0264,-0.0457 -0.0645,-0.0802 -0.10846,-0.10164 z m -2.3165,1.40233 a 0.90691136,0.90744498 30 0 1 0.33162,1.23908 0.90691136,0.90744498 30 0 1 -1.23907,0.33268 0.90691136,0.90744498 30 0 1 -0.33176,-1.23959 0.90691136,0.90744498 30 0 1 1.23921,-0.33217 z"
           style="fill:url(#fond_base_40);stroke:url(#contour_base);stroke-width:0.39687601;paint-order:fill markers stroke"
           id="path63822" />
        <g
           transform="translate(-36.868478)"
           id="g63828">
          <path
             id="path63824"
             d="m 267.23399,616.7369 c 0.19909,-0.0189 0.39707,-0.0189 0.59286,-8.4e-4 0.19579,0.0181 0.38938,0.0543 0.57967,0.1078 0.1903,0.0535 0.3773,0.1244 0.55992,0.21183 0.18261,0.0874 0.36085,0.19145 0.5336,0.31125 0.17275,0.11981 0.34002,0.25542 0.50073,0.40606 0.1607,0.15064 0.31483,0.31631 0.46129,0.49624"
             style="fill:none;fill-opacity:1;stroke:url(#linearGradient6269);stroke-width:0.5;stroke-linecap:butt;stroke-linejoin:miter;stroke-opacity:1;marker-end:url(#Arrow2Send-2-9)" />
          <path
             id="path63826"
             d="m 277.14331,616.7369 c -0.19909,-0.0189 -0.39707,-0.0189 -0.59286,-8.4e-4 -0.19579,0.0181 -0.38938,0.0543 -0.57967,0.1078 -0.1903,0.0535 -0.3773,0.1244 -0.55992,0.21183 -0.18261,0.0874 -0.36085,0.19145 -0.5336,0.31125 -0.17275,0.11981 -0.34002,0.25542 -0.50073,0.40606 -0.1607,0.15064 -0.31483,0.31631 -0.46129,0.49624"
             style="fill:none;fill-opacity:1;stroke:url(#linearGradient6271);stroke-width:0.5;stroke-linecap:butt;stroke-linejoin:miter;stroke-opacity:1;marker-end:url(#Arrow2Send-2-9)" />
        </g>
      </g>
    </g>
  </g>
</svg>
