<?xml version="1.0" encoding="UTF-8" standalone="no"?>
<svg
   xmlns:dc="http://purl.org/dc/elements/1.1/"
   xmlns:cc="http://creativecommons.org/ns#"
   xmlns:rdf="http://www.w3.org/1999/02/22-rdf-syntax-ns#"
   xmlns:svg="http://www.w3.org/2000/svg"
   xmlns="http://www.w3.org/2000/svg"
   xmlns:xlink="http://www.w3.org/1999/xlink"
   width="47.270542"
   height="47.27055"
   viewBox="0 0 12.506998 12.507"
   version="1.1"
   id="svg5"
   style="enable-background:new">
  <metadata
     id="metadata1060">
    <rdf:RDF>
      <cc:Work
         rdf:about="">
        <dc:format>image/svg+xml</dc:format>
        <dc:type
           rdf:resource="http://purl.org/dc/dcmitype/StillImage" />
        <dc:title></dc:title>
      </cc:Work>
    </rdf:RDF>
  </metadata>
  <defs
     id="defs2">
    <linearGradient
       id="action_blanc"
       gradientTransform="matrix(-0.10644594,0.11609075,0.11617526,0.10636849,1979.3499,-142.33631)">
      <stop
         style="stop-color:#ffffff;stop-opacity:1;"
         offset="0"
         id="stop34826" />
    </linearGradient>
    <linearGradient
       id="fond_base_40"
       gradientTransform="matrix(0.77815774,0,0,0.77941913,-86.733696,2137.7306)">
      <stop
         style="stop-color:#999999;stop-opacity:1;"
         offset="0"
         id="stop31971" />
    </linearGradient>
    <linearGradient
       xlink:href="#fond_base_40"
       id="linearGradient3624"
       gradientTransform="scale(1.0002369,0.99976311)"
       x1="230.71957"
       y1="181.65517"
       x2="231.98584"
       y2="181.65517"
       gradientUnits="userSpaceOnUse" />
    <linearGradient
       xlink:href="#fond_base_40"
       id="linearGradient3626"
       gradientTransform="scale(1.0000119,0.99998815)"
       x1="237.31449"
       y1="181.61515"
       x2="238.5801"
       y2="181.61515"
       gradientUnits="userSpaceOnUse" />
    <linearGradient
       xlink:href="#action_blanc"
       id="linearGradient3628"
       gradientTransform="scale(1.0131752,0.98699608)"
       x1="28.482162"
       y1="154.87559"
       x2="52.064043"
       y2="154.87559"
       gradientUnits="userSpaceOnUse" />
    <linearGradient
       xlink:href="#action_blanc"
       id="linearGradient3630"
       gradientTransform="scale(1.6153662,0.61905466)"
       x1="-0.16330627"
       y1="-35.206987"
       x2="39.386761"
       y2="-35.206987"
       gradientUnits="userSpaceOnUse" />
    <linearGradient
       xlink:href="#fond_base_40"
       id="linearGradient3632"
       gradientTransform="scale(1.3766605,0.72639551)"
       x1="167.75783"
       y1="246.10335"
       x2="173.18333"
       y2="246.10335"
       gradientUnits="userSpaceOnUse" />
  </defs>
  <g
     id="layer1"
     style="display:inline"
     transform="translate(-228.67863,-174.19349)">
    <g
       id="g5575"
       transform="translate(0,1.344255)">
      <g
         style="fill:none;fill-opacity:1;stroke-width:0.39687499"
         transform="translate(157.61669,101.43099)"
         id="use93331">
        <path
           style="opacity:1;vector-effect:none;fill:none;fill-opacity:1;stroke:none;stroke-width:0.276272;stroke-linecap:butt;stroke-linejoin:miter;stroke-miterlimit:4;stroke-dasharray:none;stroke-dashoffset:0;stroke-opacity:1;paint-order:markers stroke fill"
           d="m 71.061935,71.418243 h 12.506998 v 12.507 H 71.061935 Z"
           id="rect2555" />
      </g>
      <path
         style="color:#000000;fill:url(#linearGradient3624);fill-opacity:1;stroke-width:0.39687499;stroke-linecap:square;paint-order:fill markers stroke"
         d="m 230.77424,181.6125 0.002,0.18548 7.5e-4,0.70927 -0.002,0.18541 1.9e-4,0.18345 0.18547,0.002 0.18545,-0.002 0.70927,-7.5e-4 0.18344,-1.9e-4 0.002,-0.36892 -0.18553,0.002 -0.70927,7.4e-4 -0.003,-0.71131 0.002,-0.18554 z"
         id="path93335" />
      <path
         style="color:#000000;fill:url(#linearGradient3626);fill-opacity:1;stroke-width:0.39687499;stroke-linecap:square;paint-order:fill markers stroke"
         d="m 237.3173,182.87766 0.18547,-0.002 0.70927,7.5e-4 0.18545,0.002 0.18344,1.9e-4 0.002,-0.18547 -0.002,-0.18541 7.6e-4,-0.70928 1.9e-4,-0.18344 -0.36891,-0.002 0.002,0.18554 -7.6e-4,0.70928 -0.71132,10e-4 -0.18554,-0.002 z"
         id="path93345" />
      <path
         id="path3785"
         style="fill:none;stroke:url(#linearGradient3628);stroke-width:1.5;stroke-linecap:square;stroke-miterlimit:4;stroke-dasharray:none;paint-order:fill markers stroke"
         transform="matrix(0.26458333,0,0,0.26458333,223.88448,134.73634)"
         d="m 48.693359,175.07617 c 2.106201,-2.09162 3.295577,-4.93404 3.306641,-7.90234 8.19e-4,-6.18366 -5.011656,-11.19701 -11.195312,-11.19727 -6.184419,-8.2e-4 -11.198085,5.01285 -11.197266,11.19727 0.01158,2.96763 1.200917,5.80925 3.30664,7.90039 m 7.887602,-21.46224 0.0012,2.36546 0.0018,2.36542" />
      <g
         aria-label="270°"
         transform="matrix(0.05721415,0,0,0.05071965,232.90511,178.37699)"
         style="font-weight:bold;font-size:26px;line-height:2.29999995;font-family:serif;-inkscape-font-specification:'serif Bold';text-align:end;text-decoration-color:#000000;letter-spacing:-1.22790003px;word-spacing:0px;white-space:pre;shape-inside:url(#rect4766);display:inline;fill:url(#linearGradient3630);fill-rule:evenodd;stroke:#ff0000;stroke-width:4.64088011;paint-order:markers stroke fill"
         id="text5056">
        <path
           d="M 7.4902344,-3.5927734 H 15.831055 V 0 H 2.0566406 V -3.5927734 L 8.9755859,-9.6992188 Q 9.9023438,-10.537109 10.34668,-11.336914 10.791016,-12.136719 10.791016,-13 q 0,-1.333008 -0.9013676,-2.145508 -0.8886718,-0.8125 -2.3740234,-0.8125 -1.1425781,0 -2.5009766,0.495117 -1.3583984,0.482422 -2.9072265,1.447266 v -4.164062 q 1.6503906,-0.545899 3.2626953,-0.825196 1.6123047,-0.291992 3.1611328,-0.291992 3.402344,0 5.28125,1.498047 1.891602,1.498047 1.891602,4.176758 0,1.548828 -0.799805,2.894531 -0.799805,1.3330077 -3.364258,3.5800781 z"
           style="font-family:sans-serif;-inkscape-font-specification:'sans-serif Bold';fill:url(#linearGradient3630);stroke:none"
           id="path3635" />
        <path
           d="m 18.602179,-18.954102 h 14.282226 v 2.754883 L 25.495733,0 h -4.760742 l 6.995117,-15.361328 h -9.127929 z"
           style="font-family:sans-serif;-inkscape-font-specification:'sans-serif Bold';fill:url(#linearGradient3630);stroke:none"
           id="path3637" />
        <path
           d="m 45.684826,-9.4960938 q 0,-3.5546872 -0.672852,-5.0019532 -0.660156,-1.459961 -2.234375,-1.459961 -1.574218,0 -2.24707,1.459961 -0.672852,1.447266 -0.672852,5.0019532 0,3.5927735 0.672852,5.0654297 0.672852,1.4726563 2.24707,1.4726563 1.561524,0 2.234375,-1.4726563 0.672852,-1.4726562 0.672852,-5.0654297 z m 4.887695,0.038086 q 0,4.7099609 -2.03125,7.274414 -2.03125,2.55175786 -5.763672,2.55175786 -3.745117,0 -5.776367,-2.55175786 -2.03125,-2.5644531 -2.03125,-7.274414 0,-4.7226562 2.03125,-7.2744142 2.03125,-2.564453 5.776367,-2.564453 3.732422,0 5.763672,2.564453 2.03125,2.551758 2.03125,7.2744142 z"
           style="font-family:sans-serif;-inkscape-font-specification:'sans-serif Bold';fill:url(#linearGradient3630);stroke:none"
           id="path3639" />
        <path
           d="m 57.08876,-17.417969 q -0.914062,0 -1.548828,0.634766 -0.634765,0.634766 -0.634765,1.548828 0,0.914062 0.62207,1.536133 0.634766,0.62207 1.561523,0.62207 0.914063,0 1.548829,-0.62207 0.634765,-0.634766 0.634765,-1.536133 0,-0.914062 -0.647461,-1.548828 -0.634765,-0.634766 -1.536133,-0.634766 z m 0,-2.05664 q 0.837891,0 1.612305,0.330078 0.774414,0.317383 1.383789,0.914062 0.59668,0.609375 0.901367,1.371094 0.317383,0.761719 0.317383,1.625 0,0.850586 -0.317383,1.625 -0.304687,0.761719 -0.875976,1.333008 -0.609375,0.609375 -1.396485,0.939453 -0.787109,0.317383 -1.65039,0.317383 -1.790039,0 -3.008789,-1.206055 -1.206055,-1.21875 -1.206055,-3.008789 0,-1.790039 1.21875,-3.008789 1.231445,-1.231445 3.021484,-1.231445 z"
           style="font-family:sans-serif;-inkscape-font-specification:'sans-serif Bold';fill:url(#linearGradient3630);stroke:none"
           id="path3641" />
      </g>
      <g
         id="g4618">
        <path
           id="path93343"
           style="display:inline;fill:none;fill-opacity:1;stroke:url(#linearGradient3632);stroke-width:0.39687401;stroke-linecap:round;stroke-linejoin:round;stroke-miterlimit:4;stroke-dasharray:none;stroke-dashoffset:0;stroke-opacity:1;paint-order:fill markers stroke"
           d="m 238.21421,182.50782 -3.53468,-3.54102 -3.53352,3.54219" />
      </g>
    </g>
  </g>
</svg>
