<?xml version="1.0" encoding="UTF-8" standalone="no"?>
<svg
   xmlns:dc="http://purl.org/dc/elements/1.1/"
   xmlns:cc="http://creativecommons.org/ns#"
   xmlns:rdf="http://www.w3.org/1999/02/22-rdf-syntax-ns#"
   xmlns:svg="http://www.w3.org/2000/svg"
   xmlns="http://www.w3.org/2000/svg"
   xmlns:xlink="http://www.w3.org/1999/xlink"
   style="enable-background:new"
   id="svg5"
   version="1.1"
   viewBox="0 0 12.506998 12.507"
   height="47.27055"
   width="47.270542">
  <metadata
     id="metadata1060">
    <rdf:RDF>
      <cc:Work
         rdf:about="">
        <dc:format>image/svg+xml</dc:format>
        <dc:type
           rdf:resource="http://purl.org/dc/dcmitype/StillImage" />
        <dc:title></dc:title>
      </cc:Work>
    </rdf:RDF>
  </metadata>
  <defs
     id="defs2">
    <linearGradient
       gradientTransform="matrix(-0.10644594,0.11609075,0.11617526,0.10636849,1979.3499,-142.33631)"
       id="action_blanc">
      <stop
         id="stop34826"
         offset="0"
         style="stop-color:#ffffff;stop-opacity:1;" />
    </linearGradient>
    <linearGradient
       gradientTransform="matrix(0.77815774,0,0,0.77941913,-86.733696,2137.7306)"
       id="fond_base_40">
      <stop
         id="stop31971"
         offset="0"
         style="stop-color:#999999;stop-opacity:1;" />
    </linearGradient>
    <linearGradient
       gradientUnits="userSpaceOnUse"
       y2="446.82202"
       x2="781.19543"
       y1="446.82202"
       x1="779.47559"
       id="linearGradient7041"
       xlink:href="#fond_base_40" />
    <linearGradient
       gradientUnits="userSpaceOnUse"
       y2="3097.688"
       x2="47.529884"
       y1="3097.688"
       x1="14.211917"
       gradientTransform="scale(1.1249912,0.88889585)"
       id="linearGradient7043"
       xlink:href="#action_blanc" />
  </defs>
  <g
     transform="translate(-228.9681,-855.40618)"
     style="display:inline"
     id="layer1">
    <g
       style="display:inline"
       transform="translate(-1.1550511e-6,-6.6798167)"
       id="g290139">
      <g
         id="use290125"
         transform="translate(157.90617,790.66775)"
         style="fill:none;stroke-width:0.26458299">
        <rect
           style="opacity:1;vector-effect:none;fill:none;fill-opacity:1;stroke:none;stroke-width:0.276272;stroke-linecap:butt;stroke-linejoin:miter;stroke-miterlimit:4;stroke-dasharray:none;stroke-dashoffset:0;stroke-opacity:1;paint-order:markers stroke fill"
           id="rect5318"
           width="12.506998"
           height="12.507"
           x="71.061935"
           y="71.418243" />
      </g>
      <rect
         ry="0.85992831"
         rx="0.85992831"
         transform="rotate(45)"
         y="446.82202"
         x="779.47559"
         height="1.7198566"
         width="1.7198566"
         id="rect290127"
         style="display:inline;opacity:1;vector-effect:none;fill:url(#linearGradient7041);fill-opacity:1;stroke:none;stroke-width:0.39687499;stroke-linecap:square;stroke-linejoin:miter;stroke-miterlimit:4;stroke-dasharray:none;stroke-dashoffset:0;stroke-opacity:1;paint-order:fill markers stroke" />
      <g
         id="path290129">
        <g
           id="g74433">
          <g
             transform="matrix(-0.37591494,1.4521322,-1.4521322,-0.37591494,378.92847,620.71557)"
             id="g74437">
            <path
               transform="matrix(-0.04420481,-0.17075999,0.17075999,-0.04420481,-287.36104,179.67992)"
               d="m 34.953125,2753.5234 c -1.16462,0.014 -2.321104,0.1646 -3.445313,0.4454 -3.270425,0.8167 -6.268823,2.737 -8.392578,5.6093 l -0.443359,0.5977 1.203125,0.8945 0.449219,-0.5996 c 3.826167,-5.1749 10.765653,-6.9098 16.580078,-4.1484 4.128459,1.9695 6.848924,5.8188 7.5,10.1172 l -3.652344,-0.01 4.347656,8.8457 4.371094,-8.834 h -3.552734 c -0.666485,-4.8668 -3.717152,-9.2485 -8.371094,-11.4687 -2.117346,-1.0056 -4.370385,-1.4759 -6.59375,-1.4493 z m -14.595703,7.8633 -4.369141,8.834 h 3.552735 c 0.664371,4.863 3.708589,9.2412 8.357422,11.4629 6.451577,3.0769 14.189185,1.147 18.439453,-4.5996 l 0.451171,-0.6055 -1.210937,-0.8847 -0.443359,0.5976 c -3.828775,5.1767 -10.776111,6.9124 -16.587891,4.1406 -4.123875,-1.9707 -6.843063,-5.8147 -7.496094,-10.1093 h 3.65625 z"
               style="fill:url(#linearGradient7043);stroke-width:1.67984998;stroke-linecap:square;paint-order:fill markers stroke"
               id="path74435" />
          </g>
        </g>
      </g>
      <g
         id="path290131">
        <g
           id="g74421">
          <g
             transform="matrix(0.37611511,-1.4520804,1.4520804,0.37611511,91.480438,1115.9434)"
             id="g74425" />
        </g>
      </g>
    </g>
  </g>
</svg>
