<?xml version="1.0" encoding="UTF-8" standalone="no"?>
<!-- Created with Inkscape (http://www.inkscape.org/) -->

<svg
   xmlns:dc="http://purl.org/dc/elements/1.1/"
   xmlns:cc="http://creativecommons.org/ns#"
   xmlns:rdf="http://www.w3.org/1999/02/22-rdf-syntax-ns#"
   xmlns:svg="http://www.w3.org/2000/svg"
   xmlns="http://www.w3.org/2000/svg"
   xmlns:sodipodi="http://sodipodi.sourceforge.net/DTD/sodipodi-0.dtd"
   xmlns:inkscape="http://www.inkscape.org/namespaces/inkscape"
   width="47"
   height="47"
   viewBox="0 0 12.435416 12.435417"
   version="1.1"
   id="svg105"
   inkscape:version="0.92.5 (2060ec1f9f, 2020-04-08)"
   sodipodi:docname="stop.svg">
  <defs
     id="defs99" />
  <sodipodi:namedview
     id="base"
     pagecolor="#ffffff"
     bordercolor="#666666"
     borderopacity="1.0"
     inkscape:pageopacity="0.0"
     inkscape:pageshadow="2"
     inkscape:zoom="1.1"
     inkscape:cx="61.054771"
     inkscape:cy="45.093586"
     inkscape:document-units="mm"
     inkscape:current-layer="layer1"
     showgrid="false"
     units="px"
     inkscape:window-width="1848"
     inkscape:window-height="1016"
     inkscape:window-x="72"
     inkscape:window-y="27"
     inkscape:window-maximized="1" />
  <metadata
     id="metadata102">
    <rdf:RDF>
      <cc:Work
         rdf:about="">
        <dc:format>image/svg+xml</dc:format>
        <dc:type
           rdf:resource="http://purl.org/dc/dcmitype/StillImage" />
        <dc:title></dc:title>
      </cc:Work>
    </rdf:RDF>
  </metadata>
  <g
     inkscape:label="Calque 1"
     inkscape:groupmode="layer"
     id="layer1"
     transform="translate(0,-284.56457)">
    <path
       transform="rotate(-45.000001)"
       style="display:inline;fill:#ffffff;fill-opacity:1;stroke:#ff0000;stroke-width:1.13484466;stroke-linecap:square;stroke-linejoin:miter;stroke-opacity:1;paint-order:fill markers stroke"
       d="m -201.21753,207.03149 c 1.65048,0 2.97922,1.32873 2.97922,2.97922 0,1.65049 -1.32874,2.97922 -2.97922,2.97922 -1.65049,0 -2.97922,-1.32873 -2.97922,-2.97922 0,-1.65049 1.32873,-2.97922 2.97922,-2.97922 z"
       id="rect35" />
    <path
       inkscape:connector-curvature="0"
       id="path63"
       clip-path="none"
       style="color:#000000;display:inline;fill:#ff0000;stroke-width:1.13484466;stroke-linecap:square;paint-order:markers stroke fill"
       d="m 4.6362326,289.20082 v 0.80108 c 0.259913,0.25943 0.520111,0.51875 0.779969,0.77822 -0.259949,0.25996 -0.520021,0.52002 -0.779969,0.77998 v 0.80343 h 0.801666 l 0.780569,-0.78056 c 0.259856,0.26025 0.519566,0.52026 0.779388,0.78056 h 0.801087 v -0.80343 c -0.259426,-0.25992 -0.518748,-0.52011 -0.77822,-0.77998 l 0.77822,-0.77822 v -0.80108 h -0.803436 l -0.777039,0.77705 c -0.259471,-0.25909 -0.519281,-0.51801 -0.778811,-0.77705 z" />
  </g>
</svg>
